<?xml version="1.0" encoding="utf-8"?>
<!-- Generator: Adobe Illustrator 16.0.0, SVG Export Plug-In . SVG Version: 6.00 Build 0)  -->
<!DOCTYPE svg PUBLIC "-//W3C//DTD SVG 1.1//EN" "http://www.w3.org/Graphics/SVG/1.1/DTD/svg11.dtd">
<svg version="1.1" id="Layer_1" xmlns="http://www.w3.org/2000/svg" xmlns:xlink="http://www.w3.org/1999/xlink" x="0px" y="0px"
	 width="168px" height="48px" viewBox="28 96.75 168 48" enable-background="new 28 96.75 168 48" xml:space="preserve">
<g>
	<path fill="#FFFFFF" d="M46,105c-0.45,0.225-0.9,0.299-1.425,0.375c0.524-0.301,0.899-0.75,1.05-1.35
		c-0.45,0.299-0.975,0.449-1.575,0.6c-0.45-0.451-1.125-0.75-1.8-0.75c-1.35,0-2.475,1.125-2.475,2.475c0,0.225,0,0.375,0.074,0.525
		c-2.024-0.076-3.824-1.051-5.1-2.551c-0.225,0.375-0.3,0.75-0.3,1.275c0,0.824,0.45,1.574,1.125,2.025
		c-0.375,0-0.75-0.15-1.125-0.301l0,0c0,1.201,0.825,2.176,1.95,2.4c-0.301,0.225-0.75,0.225-1.125,0
		c0.3,0.975,1.199,1.725,2.324,1.725c-0.824,0.676-1.875,1.051-3.074,1.051c-0.226,0-0.375,0-0.601,0
		c1.125,0.674,2.4,1.125,3.75,1.125c4.5,0,6.976-3.75,6.976-6.975c0-0.076,0-0.227,0-0.301C45.25,105.975,45.7,105.525,46,105z"/>
	<path fill="#FFFFFF" d="M86.5,108.75v6h2.25v-6h1.5L91,106.5h-2.25c0,0,0-0.375,0-0.975c0-0.227,0.15-0.525,0.525-0.525
		c0.75,0,2.175,0,1.725,0v-2.25c0,0-1.2,0-2.475,0c-1.275,0-2.025,0.975-2.025,2.1s0,1.725,0,1.725H85v2.25h1.5V108.75z"/>
	<path fill="#FFFFFF" d="M112,114.75c-3.3,0-6-2.701-6-6c0-3.301,2.7-6,6-6c3.301,0,6,2.699,6,6
		C118,112.049,115.301,114.75,112,114.75z M117.025,109.574c-0.15-0.074-1.576-0.449-3.225-0.225
		c0.674,1.875,0.824,2.775,0.975,3.676C116.051,112.199,116.801,111,117.025,109.574z M114.025,113.475
		c-0.15-0.9-0.375-2.025-1.125-3.9l0,0c-2.926,0.975-3.9,3-4.051,3.225C110.05,113.775,112,114.15,114.025,113.475z
		 M108.175,112.199c1.2-2.324,4.351-3.449,4.425-3.449c-0.15-0.301-0.3-0.6-0.449-0.9c-2.551,0.75-5.025,0.75-5.25,0.75
		C106.825,110.025,107.35,111.299,108.175,112.199z M106.975,107.699c0.226,0,2.325,0,4.726-0.6c-0.825-1.5-1.726-2.775-1.875-3
		C108.4,104.775,107.35,106.125,106.975,107.699z M110.8,103.799c0.15,0.227,1.05,1.426,1.876,3
		c1.799-0.674,2.625-1.725,2.699-1.875C114.475,104.1,112.75,103.424,110.8,103.799z M115.975,105.525
		c-0.074,0.148-0.975,1.273-2.85,2.023c0.15,0.227,0.301,0.676,0.449,1.051c1.727-0.225,3,0,3.602,0.15
		C117.176,107.4,116.65,106.35,115.975,105.525z"/>
	<path fill="#FFFFFF" d="M155.5,111.75c-0.824,0-1.5,0.674-1.5,1.5c0,0.824,0.676,1.5,1.5,1.5s1.5-0.676,1.5-1.5
		C157.074,112.5,156.324,111.75,155.5,111.75z M154,106.799v2.326c3.15,0,5.625,2.699,5.625,5.625h2.324
		C161.949,110.4,158.35,106.799,154,106.799z M154,102.75v2.324c5.324,0,9.676,4.35,9.676,9.676H166
		C166,108.15,160.6,102.75,154,102.75z"/>
	<path fill="#FFFFFF" d="M66.1,109.574c-0.449,0-0.824,0.525-0.824,1.201c0,0.674,0.375,1.199,0.824,1.199
		c0.45,0,0.825-0.525,0.825-1.199C66.925,110.1,66.55,109.574,66.1,109.574z M69.025,106.574c0.074-0.225,0.074-1.574-0.45-2.85
		c0,0-1.2,0.15-3,1.35c-0.375-0.074-0.976-0.15-1.65-0.15s-1.274,0.076-1.649,0.15c-1.801-1.199-3-1.35-3-1.35
		c-0.525,1.275-0.525,2.625-0.45,2.85C58.375,107.174,58,108,58,109.049c0,4.65,3.9,4.727,4.875,4.727c0.225,0,0.675,0,1.125,0
		s0.9,0,1.125,0c0.975,0,4.875-0.076,4.875-4.727C70,108,69.625,107.174,69.025,106.574z M64,113.25L64,113.25
		c-2.475,0-4.425-0.301-4.425-2.701c0-0.6,0.225-1.125,0.675-1.574c0.825-0.75,2.175-0.375,3.675-0.375l0,0l0,0
		c1.575,0,2.925-0.375,3.675,0.375c0.45,0.449,0.676,0.975,0.676,1.574C68.425,112.949,66.475,113.25,64,113.25z M61.9,109.574
		c-0.45,0-0.825,0.525-0.825,1.201c0,0.674,0.375,1.199,0.825,1.199c0.449,0,0.824-0.525,0.824-1.199
		C62.8,110.1,62.425,109.574,61.9,109.574z"/>
	<path fill="#FFFFFF" d="M135.324,105.6c-0.148-1.275-1.049-2.25-1.875-2.25c-0.824,0-1.5,0.975-1.35,2.176
		c0.15,1.273,1.051,2.25,1.875,2.324C134.801,107.85,135.4,106.799,135.324,105.6z M133.9,110.25c-1.35,0-2.551,0.824-2.551,1.949
		s0.975,1.951,2.25,1.951c1.875,0,2.551-0.826,2.551-1.951c0-0.15,0-0.225-0.076-0.375c-0.148-0.6-0.674-0.9-1.35-1.424
		C134.5,110.324,134.199,110.25,133.9,110.25z M135.4,103.35c0.75,0.301,1.125,1.199,1.125,2.176c0,0.75-0.451,1.424-0.975,1.949
		c-0.525,0.449-0.676,0.676-0.676,1.051s0.6,0.898,0.9,1.125c0.9,0.75,1.199,1.35,1.199,2.398c0,1.352-1.199,2.701-3.375,2.701
		c-1.949,0-3.525-0.826-3.525-2.176s1.5-2.699,3.375-2.699h0.602c-0.227-0.301-0.451-0.6-0.451-1.051c0-0.225,0.076-0.449,0.15-0.75
		c-0.15,0-0.225,0-0.301,0c-1.574,0-2.625-1.199-2.625-2.699c0-1.426,1.426-2.701,3-2.701h3.451l-0.75,0.602H135.4V103.35z
		 M141.25,105.75h-1.5v1.5H139v-1.5h-1.5V105h1.5v-1.5h0.75v1.5h1.5V105.75z"/>
	<path fill="#FFFFFF" d="M183.176,110.699c-0.301,1.65-0.676,3.225-1.875,4.051c-0.375-2.475,0.523-4.35,0.898-6.375
		c-0.674-1.125,0.076-3.451,1.5-2.926c1.801,0.676-1.574,4.275,0.676,4.725c2.324,0.451,3.301-4.049,1.875-5.549
		c-2.1-2.1-6.074-0.076-5.625,3c0.15,0.75,0.9,0.975,0.301,2.025c-1.352-0.301-1.727-1.352-1.65-2.775
		c0.074-2.326,2.1-3.9,4.049-4.125c2.551-0.301,4.875,0.9,5.25,3.299c0.375,2.701-1.125,5.551-3.824,5.4
		C184.074,111.375,183.775,111,183.176,110.699z"/>
	<path fill="#383838" d="M46,129c-0.45,0.225-0.9,0.301-1.425,0.375c0.524-0.301,0.899-0.75,1.05-1.35
		c-0.45,0.299-0.975,0.449-1.575,0.6c-0.45-0.449-1.125-0.75-1.8-0.75c-1.35,0-2.475,1.125-2.475,2.475c0,0.225,0,0.375,0.074,0.525
		c-2.024-0.074-3.824-1.051-5.1-2.551c-0.225,0.375-0.3,0.75-0.3,1.275c0,0.826,0.45,1.576,1.125,2.025
		c-0.375,0-0.75-0.15-1.125-0.301l0,0c0,1.201,0.825,2.176,1.95,2.4c-0.301,0.225-0.75,0.225-1.125,0
		c0.3,0.975,1.199,1.725,2.324,1.725c-0.824,0.676-1.875,1.051-3.074,1.051c-0.226,0-0.375,0-0.601,0
		c1.125,0.676,2.4,1.125,3.75,1.125c4.5,0,6.976-3.75,6.976-6.975c0-0.076,0-0.225,0-0.301C45.25,129.975,45.7,129.525,46,129z"/>
	<path fill="#383838" d="M86.5,132.75v6h2.25v-6h1.5L91,130.5h-2.25c0,0,0-0.375,0-0.975c0-0.225,0.15-0.525,0.525-0.525
		c0.75,0,2.175,0,1.725,0v-2.25c0,0-1.2,0-2.475,0c-1.275,0-2.025,0.975-2.025,2.1s0,1.725,0,1.725H85v2.25L86.5,132.75L86.5,132.75
		z"/>
	<path fill="#383838" d="M112,138.75c-3.3,0-6-2.699-6-6s2.7-6,6-6c3.301,0,6,2.699,6,6S115.301,138.75,112,138.75z
		 M117.025,133.574c-0.15-0.074-1.576-0.449-3.225-0.225c0.674,1.875,0.824,2.775,0.975,3.676
		C116.051,136.199,116.801,135,117.025,133.574z M114.025,137.475c-0.15-0.9-0.375-2.025-1.125-3.9l0,0
		c-2.926,0.977-3.9,3-4.051,3.227C110.05,137.775,112,138.15,114.025,137.475z M108.175,136.199c1.2-2.324,4.351-3.449,4.425-3.449
		c-0.15-0.301-0.3-0.6-0.449-0.9c-2.551,0.75-5.025,0.75-5.25,0.75C106.825,134.025,107.35,135.301,108.175,136.199z
		 M106.975,131.699c0.226,0,2.325,0,4.726-0.6c-0.825-1.5-1.726-2.775-1.875-3C108.4,128.775,107.35,130.125,106.975,131.699z
		 M110.8,127.801c0.15,0.225,1.05,1.424,1.876,3c1.799-0.676,2.625-1.727,2.699-1.875C114.475,128.1,112.75,127.426,110.8,127.801z
		 M115.975,129.525c-0.074,0.15-0.975,1.275-2.85,2.025c0.15,0.225,0.301,0.674,0.449,1.049c1.727-0.225,3,0,3.602,0.15
		C117.176,131.4,116.65,130.35,115.975,129.525z"/>
	<path fill="#383838" d="M155.5,135.75c-0.824,0-1.5,0.676-1.5,1.5s0.676,1.5,1.5,1.5s1.5-0.676,1.5-1.5
		C157.074,136.5,156.324,135.75,155.5,135.75z M154,130.801v2.324c3.15,0,5.625,2.699,5.625,5.625h2.324
		C161.949,134.4,158.35,130.801,154,130.801z M154,126.75v2.324c5.324,0,9.676,4.352,9.676,9.676H166
		C166,132.15,160.6,126.75,154,126.75z"/>
	<path fill="#383838" d="M66.1,133.574c-0.449,0-0.824,0.525-0.824,1.201c0,0.674,0.375,1.199,0.824,1.199
		c0.45,0,0.825-0.525,0.825-1.199C66.925,134.1,66.55,133.574,66.1,133.574z M69.025,130.574c0.074-0.225,0.074-1.574-0.45-2.85
		c0,0-1.2,0.15-3,1.35c-0.375-0.074-0.976-0.148-1.65-0.148s-1.274,0.074-1.649,0.148c-1.801-1.199-3-1.35-3-1.35
		c-0.525,1.275-0.525,2.625-0.45,2.85C58.375,131.176,58,132,58,133.051c0,4.648,3.9,4.725,4.875,4.725c0.225,0,0.675,0,1.125,0
		s0.9,0,1.125,0c0.975,0,4.875-0.076,4.875-4.725C70,132,69.625,131.176,69.025,130.574z M64,137.25L64,137.25
		c-2.475,0-4.425-0.301-4.425-2.699c0-0.602,0.225-1.125,0.675-1.576c0.825-0.75,2.175-0.375,3.675-0.375l0,0l0,0
		c1.575,0,2.925-0.375,3.675,0.375c0.45,0.451,0.676,0.975,0.676,1.576C68.425,136.949,66.475,137.25,64,137.25z M61.9,133.574
		c-0.45,0-0.825,0.525-0.825,1.201c0,0.674,0.375,1.199,0.825,1.199c0.449,0,0.824-0.525,0.824-1.199
		C62.8,134.1,62.425,133.574,61.9,133.574z"/>
	<path fill="#383838" d="M135.324,129.6c-0.148-1.275-1.049-2.25-1.875-2.25c-0.824,0-1.5,0.975-1.35,2.176
		c0.15,1.275,1.051,2.25,1.875,2.324C134.801,131.85,135.4,130.801,135.324,129.6z M133.9,134.25c-1.35,0-2.551,0.824-2.551,1.949
		c0,1.051,0.975,1.951,2.25,1.951c1.875,0,2.551-0.826,2.551-1.951c0-0.148,0-0.225-0.076-0.375c-0.148-0.6-0.674-0.898-1.35-1.424
		C134.5,134.324,134.199,134.25,133.9,134.25z M135.4,127.35c0.75,0.301,1.125,1.201,1.125,2.176c0,0.75-0.451,1.424-0.975,1.949
		c-0.525,0.451-0.676,0.676-0.676,1.051s0.6,0.9,0.9,1.125c0.9,0.75,1.199,1.35,1.199,2.4c0,1.35-1.199,2.699-3.375,2.699
		c-1.949,0-3.525-0.824-3.525-2.176c0-1.35,1.5-2.699,3.375-2.699h0.602c-0.227-0.301-0.451-0.6-0.451-1.051
		c0-0.225,0.076-0.449,0.15-0.75c-0.15,0-0.225,0-0.301,0c-1.574,0-2.625-1.199-2.625-2.699c0-1.426,1.426-2.699,3-2.699h3.451
		l-0.75,0.6H135.4V127.35z M141.25,129.75h-1.5v1.5H139v-1.5h-1.5V129h1.5v-1.5h0.75v1.5h1.5V129.75z"/>
	<path fill="#383838" d="M183.176,134.699c-0.301,1.65-0.676,3.227-1.875,4.051c-0.375-2.475,0.523-4.35,0.898-6.375
		c-0.674-1.125,0.076-3.449,1.5-2.926c1.801,0.676-1.574,4.275,0.676,4.727c2.324,0.449,3.301-4.051,1.875-5.551
		c-2.1-2.1-6.074-0.074-5.625,3c0.15,0.75,0.9,0.975,0.301,2.025c-1.352-0.301-1.727-1.35-1.65-2.775
		c0.074-2.324,2.1-3.9,4.049-4.125c2.551-0.301,4.875,0.9,5.25,3.301c0.375,2.699-1.125,5.549-3.824,5.398
		C184.074,135.375,183.775,135,183.176,134.699z"/>
</g>
</svg>
