<?xml version="1.0" encoding="utf-8"?>
<!-- Generator: Adobe Illustrator 16.0.0, SVG Export Plug-In . SVG Version: 6.00 Build 0)  -->
<!DOCTYPE svg PUBLIC "-//W3C//DTD SVG 1.1//EN" "http://www.w3.org/Graphics/SVG/1.1/DTD/svg11.dtd">
<svg version="1.1" id="Layer_1" xmlns="http://www.w3.org/2000/svg" xmlns:xlink="http://www.w3.org/1999/xlink" x="0px" y="0px"
   width="70px" height="70px" viewBox="0 0 270 270" enable-background="new 0 0 270 270" xml:space="preserve">
<g>
  <path fill-rule="evenodd" clip-rule="evenodd" fill="#205081" d="M221.706,206.33c0-3.53,0-5.886,0-8.241
    c0-40.526,0.009-81.05-0.008-121.576c-0.002-10.979-2.107-13.18-12.918-13.188c-49.156-0.034-98.316-0.032-147.473-0.001
    c-10.888,0.008-12.957,2.147-12.962,13.129c-0.017,39.087-0.02,78.171,0.003,117.259c0.006,10.552,2.089,12.686,12.587,12.727
    c17.025,0.067,34.053-0.15,51.076,0.116c5.503,0.087,7.521-1.474,7.415-7.295c-0.343-18.936,0.125-37.89-0.259-56.826
    c-0.138-6.785,2.293-9.006,8.792-8.542c5.966,0.424,11.988,0.219,17.979,0.056c4.506-0.124,6.562,1.641,6.547,6.31
    c-0.079,30.933-0.084,61.866,0.015,92.8c0.014,4.933-1.996,6.78-6.896,6.754c-30.214-0.14-60.434,0.22-90.641-0.238
    c-22.423-0.34-39.358-18.012-39.808-40.948c-0.337-17.259-0.084-34.528-0.086-51.793c-0.002-24.221-0.061-48.438,0.018-72.658
    c0.09-27.051,17.099-44.042,44.063-44.059c50.595-0.031,101.194-0.031,151.789,0c26.669,0.017,43.883,16.913,43.953,43.411
    c0.138,52.275,0.118,104.549,0.129,156.824c0,9.006-0.362,9.329-9.295,9.352c-16.545,0.045-33.098-0.241-49.634,0.194
    c-6.867,0.183-8.959-2.55-8.59-8.871c0.309-5.257,0.399-10.574-0.02-15.816c-0.563-7.078,2.563-9.31,9.272-8.975
    C204.811,206.634,212.903,206.33,221.706,206.33z"/>
</g>
</svg>
